<?xml version="1.0" encoding="UTF-8"?>
<svg xmlns="http://www.w3.org/2000/svg" xmlns:xlink="http://www.w3.org/1999/xlink" width="24" height="24" viewBox="0 0 24 24" version="1.1">
<g id="surface1">
<path style=" stroke:none;fill-rule:nonzero;fill:rgb(0%,0%,0%);fill-opacity:1;" d="M 0 4.726562 C 0 8.476562 0.0742188 9.625 0.398438 10.398438 C 0.773438 11.273438 0.773438 11.375 0.398438 11.648438 C 0.0507812 11.898438 0 12.5 0.0507812 16.148438 L 0.125 20.375 L 0.625 18.800781 C 1.074219 17.375 1.199219 17.226562 2 17 C 3.273438 16.648438 5.074219 16.699219 5.648438 17.125 C 6.324219 17.648438 7.101562 17.574219 7.648438 16.976562 C 8.023438 16.574219 8.101562 16.125 8.074219 15.101562 L 8 13.75 L 10.175781 12.148438 C 11.375 11.273438 12.449219 10.601562 12.523438 10.648438 C 12.625 10.699219 12.773438 11.050781 12.851562 11.398438 C 13 11.949219 12.875 12.226562 12.226562 12.851562 C 11.101562 13.949219 10.5 15.375 10.5 17.023438 C 10.5 18.75 10.976562 19.949219 12.125 21.125 C 13.300781 22.273438 14.550781 22.800781 16.300781 22.800781 C 19.648438 22.800781 22.050781 20.375 22.050781 17 C 22.050781 15.300781 21.523438 14.050781 20.351562 12.875 C 19.175781 11.699219 18.5 11.425781 16.273438 11.273438 L 14.449219 11.125 L 13.976562 9.875 C 13.699219 9.175781 13.550781 8.5 13.625 8.324219 C 13.675781 8.148438 13.574219 7.851562 13.375 7.648438 C 13.074219 7.351562 13.074219 7.273438 13.5 7.175781 C 13.800781 7.101562 14 6.824219 14 6.5 C 14 5.625 13.175781 2.824219 12.773438 2.273438 C 12.023438 1.324219 4.25 -0.648438 4.25 0.125 C 4.25 0.699219 5.351562 2.226562 5.925781 2.449219 C 6.523438 2.699219 11.699219 4.25 11.898438 4.25 C 11.925781 4.25 12.050781 4.601562 12.125 5.050781 C 12.273438 5.675781 12.199219 5.898438 11.75 6.25 C 11.351562 6.550781 11.226562 6.851562 11.300781 7.199219 C 11.425781 7.648438 11.25 7.800781 9.925781 8.226562 C 8.050781 8.875 7.75 8.875 7.75 8.273438 C 7.75 7.625 7.449219 7.425781 4.5 6.25 C 3.050781 5.675781 1.851562 5.175781 1.800781 5.125 C 1.75 5.074219 2 4 2.351562 2.726562 C 2.699219 1.425781 3 0.300781 3 0.175781 C 3 0.0742188 2.324219 0 1.5 0 L 0 0 Z M 18.25 13.523438 C 20.875 15 20.898438 18.976562 18.300781 20.449219 C 14.925781 22.351562 11.101562 19 12.574219 15.425781 C 12.773438 14.976562 13.101562 14.476562 13.324219 14.300781 C 13.648438 14.023438 13.773438 14.148438 14.226562 15.425781 C 14.976562 17.5 15.074219 17.625 16.023438 17.625 C 17.050781 17.625 17.300781 16.976562 16.550781 16.300781 C 16.125 15.949219 15.25 13.851562 15.25 13.199219 C 15.25 12.800781 17.324219 13 18.25 13.523438 Z M 18.25 13.523438 "/>
</g>
</svg>
